<svg xmlns="http://www.w3.org/2000/svg" xmlns:xlink="http://www.w3.org/1999/xlink" width="202" height="32" version="1.1" style=""><rect id="backgroundrect" width="100%" height="100%" x="0" y="0" fill="none" stroke="none"/>

<g class="currentLayer" style=""><title>Layer 1</title><g id="surface1" class="selected" fill-opacity="1" fill="#fff200">
<path style="stroke: none; fill-rule: nonzero; fill-opacity: 1;" d="M 177.8125 0.292969 C 179.039062 0.871094 179.628906 2.214844 179.125 3.300781 L 166.433594 30.78125 C 165.929688 31.867188 164.53125 32.277344 163.304688 31.699219 C 162.074219 31.121094 161.488281 29.773438 161.988281 28.6875 L 174.683594 1.207031 C 175.183594 0.125 176.582031 -0.285156 177.8125 0.292969 Z M 177.8125 0.292969 " id="svg_1" fill="#fff200"/>
<path style="stroke: none; fill-rule: nonzero; fill-opacity: 1;" d="M 6.859375 16 L 20.359375 4.734375 C 21.480469 3.789062 21.628906 2.117188 20.691406 0.988281 C 19.75 -0.136719 18.082031 -0.292969 16.953125 0.640625 L 1.003906 13.953125 C 0.398438 14.460938 0.046875 15.210938 0.046875 16 C 0.046875 16.789062 0.398438 17.539062 1.003906 18.046875 L 16.953125 31.355469 C 18.082031 32.296875 19.753906 32.144531 20.695312 31.015625 C 21.632812 29.886719 21.484375 28.207031 20.359375 27.265625 Z M 6.859375 16 " id="svg_2" fill="#fff200"/>
<path style="stroke: none; fill-rule: nonzero; fill-opacity: 1;" d="M 200.996094 13.953125 L 185.046875 0.644531 C 183.917969 -0.292969 182.246094 -0.136719 181.308594 0.988281 C 180.371094 2.117188 180.519531 3.792969 181.640625 4.734375 L 195.140625 16 L 181.640625 27.265625 C 180.515625 28.207031 180.363281 29.886719 181.304688 31.015625 C 182.242188 32.144531 183.917969 32.296875 185.046875 31.355469 L 200.996094 18.046875 C 201.601562 17.539062 201.949219 16.789062 201.949219 16 C 201.949219 15.210938 201.601562 14.460938 200.996094 13.953125 Z M 200.996094 13.953125 " id="svg_3" fill="#fff200"/>
<path style="stroke: none; fill-rule: nonzero; fill-opacity: 1;" d="M 34.234375 6.445312 C 34.660156 6.894531 34.875 7.425781 34.875 8.046875 L 34.875 16.621094 C 34.875 17.238281 34.660156 17.773438 34.234375 18.222656 L 33.214844 19.246094 C 32.789062 19.671875 32.265625 19.886719 31.648438 19.886719 L 26.40625 19.886719 C 25.554688 19.886719 25.128906 20.3125 25.128906 21.167969 L 25.128906 26.476562 C 25.128906 27.332031 24.703125 27.757812 23.851562 27.757812 L 23.5 27.757812 C 22.648438 27.757812 22.222656 27.332031 22.222656 26.476562 L 22.222656 6.0625 C 22.222656 5.207031 22.648438 4.78125 23.5 4.78125 L 31.648438 4.78125 C 32.265625 4.78125 32.789062 4.992188 33.214844 5.421875 Z M 32 8.972656 C 32 8.121094 31.574219 7.695312 30.722656 7.695312 L 26.441406 7.695312 C 25.589844 7.695312 25.164062 8.121094 25.164062 8.972656 L 25.164062 15.695312 C 25.164062 16.546875 25.589844 16.972656 26.441406 16.972656 L 30.691406 16.972656 C 31.542969 16.972656 31.96875 16.546875 31.96875 15.695312 Z M 47.558594 13.582031 C 47.984375 14.03125 48.199219 14.5625 48.199219 15.179688 L 48.199219 24.460938 C 48.199219 25.078125 47.984375 25.613281 47.558594 26.0625 L 46.535156 27.085938 C 46.109375 27.511719 45.589844 27.726562 44.972656 27.726562 L 41.011719 27.726562 C 40.390625 27.726562 39.871094 27.511719 39.445312 27.085938 L 38.390625 26.027344 C 37.964844 25.601562 37.75 25.078125 37.75 24.460938 L 37.75 15.179688 C 37.75 14.5625 37.964844 14.042969 38.390625 13.613281 L 39.445312 12.558594 C 39.871094 12.132812 40.390625 11.917969 41.011719 11.917969 L 44.972656 11.917969 C 45.589844 11.917969 46.109375 12.132812 46.535156 12.558594 Z M 45.292969 16.109375 C 45.292969 15.253906 44.867188 14.828125 44.015625 14.828125 L 41.9375 14.828125 C 41.085938 14.828125 40.660156 15.253906 40.660156 16.109375 L 40.660156 23.535156 C 40.660156 24.386719 41.085938 24.8125 41.9375 24.8125 L 44.015625 24.8125 C 44.867188 24.8125 45.292969 24.386719 45.292969 23.535156 Z M 54.621094 26.414062 C 54.621094 27.269531 54.195312 27.695312 53.34375 27.695312 L 52.992188 27.695312 C 52.140625 27.695312 51.714844 27.269531 51.714844 26.414062 L 51.714844 15.179688 C 51.714844 14.5625 51.925781 14.042969 52.351562 13.613281 L 53.40625 12.558594 C 53.832031 12.132812 54.355469 11.917969 54.972656 11.917969 L 55.546875 11.917969 C 56.398438 11.917969 56.824219 12.34375 56.824219 13.199219 L 56.824219 13.550781 C 56.824219 14.402344 56.464844 14.828125 55.738281 14.828125 C 55.378906 14.828125 55.101562 14.941406 54.910156 15.167969 C 54.714844 15.390625 54.621094 15.703125 54.621094 16.109375 Z M 68.550781 13.582031 C 68.976562 14.03125 69.1875 14.5625 69.1875 15.179688 L 69.1875 24.460938 C 69.1875 25.078125 68.976562 25.613281 68.550781 26.0625 L 67.527344 27.085938 C 67.101562 27.511719 66.582031 27.726562 65.960938 27.726562 L 62 27.726562 C 61.382812 27.726562 60.859375 27.511719 60.433594 27.085938 L 59.382812 26.027344 C 58.957031 25.601562 58.742188 25.078125 58.742188 24.460938 L 58.742188 15.179688 C 58.742188 14.5625 58.957031 14.042969 59.382812 13.613281 L 60.433594 12.558594 C 60.859375 12.132812 61.382812 11.917969 62 11.917969 L 65.960938 11.917969 C 66.582031 11.917969 67.101562 12.132812 67.527344 12.558594 Z M 66.28125 16.109375 C 66.28125 15.253906 65.855469 14.828125 65.003906 14.828125 L 62.925781 14.828125 C 62.074219 14.828125 61.648438 15.253906 61.648438 16.109375 L 61.648438 23.535156 C 61.648438 24.386719 62.074219 24.8125 62.925781 24.8125 L 65.003906 24.8125 C 65.855469 24.8125 66.28125 24.386719 66.28125 23.535156 Z M 73.664062 27.757812 C 72.808594 27.757812 72.382812 27.332031 72.382812 26.476562 L 72.382812 6.09375 C 72.382812 5.242188 72.808594 4.8125 73.664062 4.8125 L 74.011719 4.8125 C 74.867188 4.8125 75.292969 5.242188 75.292969 6.09375 L 75.292969 10.636719 C 75.292969 11.492188 75.71875 11.917969 76.570312 11.917969 L 79.511719 11.917969 C 80.128906 11.917969 80.648438 12.132812 81.074219 12.558594 L 82.128906 13.613281 C 82.554688 14.042969 82.769531 14.5625 82.769531 15.179688 L 82.769531 26.476562 C 82.769531 27.332031 82.34375 27.757812 81.488281 27.757812 L 81.140625 27.757812 C 80.289062 27.757812 79.859375 27.332031 79.859375 26.476562 L 79.859375 16.109375 C 79.859375 15.253906 79.433594 14.828125 78.582031 14.828125 L 76.570312 14.828125 C 75.71875 14.828125 75.292969 15.253906 75.292969 16.109375 L 75.292969 26.476562 C 75.292969 27.332031 74.867188 27.757812 74.011719 27.757812 Z M 89.507812 26.476562 C 89.507812 27.332031 89.082031 27.757812 88.230469 27.757812 L 87.878906 27.757812 C 87.027344 27.757812 86.601562 27.332031 86.601562 26.476562 L 86.601562 15.179688 C 86.601562 14.5625 86.816406 14.042969 87.242188 13.613281 L 88.296875 12.558594 C 88.722656 12.132812 89.246094 11.917969 89.863281 11.917969 L 93.824219 11.917969 C 94.441406 11.917969 94.960938 12.140625 95.386719 12.589844 L 96.414062 13.613281 C 96.839844 14.042969 97.050781 14.5625 97.050781 15.179688 L 97.050781 26.476562 C 97.050781 27.332031 96.625 27.757812 95.773438 27.757812 L 95.453125 27.757812 C 94.601562 27.757812 94.175781 27.332031 94.175781 26.476562 L 94.175781 16.109375 C 94.175781 15.253906 93.75 14.828125 92.898438 14.828125 L 90.789062 14.828125 C 89.933594 14.828125 89.507812 15.253906 89.507812 16.109375 Z M 103.824219 27.695312 C 103.207031 27.695312 102.683594 27.480469 102.257812 27.054688 L 101.203125 25.996094 C 100.777344 25.570312 100.566406 25.046875 100.566406 24.429688 L 100.566406 20.71875 C 100.566406 20.398438 100.617188 20.113281 100.726562 19.871094 C 100.832031 19.625 101.003906 19.382812 101.234375 19.148438 L 102.257812 18.125 C 102.683594 17.699219 103.207031 17.484375 103.824219 17.484375 L 106.859375 17.484375 C 107.710938 17.484375 108.136719 17.058594 108.136719 16.207031 L 108.136719 16.109375 C 108.136719 15.253906 107.710938 14.828125 106.859375 14.828125 L 101.9375 14.828125 C 101.085938 14.828125 100.660156 14.402344 100.660156 13.550781 L 100.660156 13.199219 C 100.660156 12.34375 101.085938 11.917969 101.9375 11.917969 L 107.785156 11.917969 C 108.402344 11.917969 108.925781 12.132812 109.351562 12.558594 L 110.40625 13.613281 C 110.832031 14.042969 111.042969 14.5625 111.042969 15.179688 L 111.042969 26.414062 C 111.042969 27.269531 110.617188 27.695312 109.765625 27.695312 Z M 108.136719 21.390625 C 108.136719 20.535156 107.710938 20.109375 106.859375 20.109375 L 104.75 20.109375 C 103.898438 20.109375 103.472656 20.535156 103.472656 21.390625 L 103.472656 23.789062 C 103.472656 24.640625 103.898438 25.070312 104.75 25.070312 L 106.859375 25.070312 C 107.710938 25.070312 108.136719 24.640625 108.136719 23.789062 Z M 115.484375 11.917969 C 116.273438 11.917969 116.730469 12.3125 116.859375 13.101562 L 118.550781 23.628906 C 118.679688 24.417969 118.808594 24.8125 118.9375 24.8125 C 119.0625 24.8125 119.191406 24.417969 119.320312 23.628906 L 120.949219 13.101562 C 121.074219 12.3125 121.535156 11.917969 122.324219 11.917969 L 122.707031 11.917969 C 123.070312 11.917969 123.355469 12.003906 123.570312 12.175781 C 123.78125 12.34375 123.890625 12.601562 123.890625 12.941406 C 123.890625 13.089844 123.878906 13.207031 123.855469 13.292969 L 121.492188 26.574219 C 121.363281 27.34375 120.894531 27.726562 120.085938 27.726562 L 117.820312 27.726562 C 117.007812 27.726562 116.539062 27.34375 116.414062 26.574219 L 113.949219 13.292969 C 113.929688 13.207031 113.917969 13.089844 113.917969 12.941406 C 113.917969 12.601562 114.027344 12.34375 114.238281 12.175781 C 114.453125 12.003906 114.738281 11.917969 115.101562 11.917969 Z M 136.828125 20.496094 C 136.828125 21.347656 136.402344 21.773438 135.550781 21.773438 L 130.628906 21.773438 C 129.777344 21.773438 129.351562 22.199219 129.351562 23.054688 L 129.351562 23.5 C 129.351562 24.355469 129.777344 24.78125 130.628906 24.78125 L 135.550781 24.78125 C 136.402344 24.78125 136.828125 25.207031 136.828125 26.0625 L 136.828125 26.414062 C 136.828125 27.269531 136.402344 27.695312 135.550781 27.695312 L 129.671875 27.695312 C 129.054688 27.695312 128.53125 27.46875 128.105469 27.019531 L 127.085938 25.996094 C 126.65625 25.570312 126.445312 25.046875 126.445312 24.429688 L 126.445312 15.148438 C 126.445312 14.53125 126.65625 14.007812 127.085938 13.582031 L 128.105469 12.558594 C 128.53125 12.132812 129.054688 11.917969 129.671875 11.917969 L 133.601562 11.917969 C 134.21875 11.917969 134.742188 12.132812 135.167969 12.558594 L 136.191406 13.582031 C 136.617188 14.007812 136.828125 14.53125 136.828125 15.148438 Z M 129.351562 17.933594 C 129.351562 18.789062 129.777344 19.214844 130.628906 19.214844 L 132.640625 19.214844 C 133.492188 19.214844 133.917969 18.789062 133.917969 17.933594 L 133.917969 16.078125 C 133.917969 15.222656 133.492188 14.796875 132.640625 14.796875 L 130.628906 14.796875 C 129.777344 14.796875 129.351562 15.222656 129.351562 16.078125 Z M 147.371094 24.8125 C 148.222656 24.8125 148.652344 25.242188 148.652344 26.09375 L 148.652344 26.445312 C 148.652344 27.300781 148.222656 27.726562 147.371094 27.726562 L 145.167969 27.726562 C 144.550781 27.726562 144.027344 27.511719 143.601562 27.085938 L 142.546875 26.027344 C 142.121094 25.601562 141.90625 25.078125 141.90625 24.460938 L 141.90625 16.078125 C 141.90625 15.671875 141.800781 15.359375 141.585938 15.132812 C 141.375 14.910156 141.066406 14.796875 140.664062 14.796875 C 139.8125 14.796875 139.386719 14.371094 139.386719 13.519531 L 139.386719 13.199219 C 139.386719 12.792969 139.496094 12.476562 139.71875 12.253906 C 139.945312 12.03125 140.257812 11.917969 140.664062 11.917969 C 141.066406 11.917969 141.375 11.804688 141.585938 11.582031 C 141.800781 11.359375 141.90625 11.042969 141.90625 10.636719 L 141.90625 9.484375 C 141.90625 8.632812 142.332031 8.207031 143.183594 8.207031 L 143.539062 8.207031 C 144.390625 8.207031 144.816406 8.632812 144.816406 9.484375 L 144.816406 10.636719 C 144.816406 11.492188 145.242188 11.917969 146.09375 11.917969 L 147.371094 11.917969 C 148.222656 11.917969 148.652344 12.34375 148.652344 13.199219 L 148.652344 13.519531 C 148.652344 14.371094 148.222656 14.796875 147.371094 14.796875 L 146.09375 14.796875 C 145.242188 14.796875 144.816406 15.222656 144.816406 16.078125 L 144.816406 23.535156 C 144.816406 24.386719 145.242188 24.8125 146.09375 24.8125 Z M 159.671875 16.496094 C 159.269531 16.496094 158.953125 16.417969 158.730469 16.269531 C 158.507812 16.121094 158.394531 15.90625 158.394531 15.628906 C 158.394531 15.375 158.28125 15.171875 158.058594 15.019531 C 157.835938 14.871094 157.519531 14.796875 157.117188 14.796875 L 155.070312 14.796875 C 154.21875 14.796875 153.792969 15.222656 153.792969 16.078125 L 153.792969 17.390625 C 153.792969 18.242188 154.21875 18.667969 155.070312 18.667969 L 158.042969 18.667969 C 158.660156 18.667969 159.183594 18.882812 159.609375 19.308594 L 160.664062 20.367188 C 161.089844 20.792969 161.300781 21.316406 161.300781 21.933594 L 161.300781 24.460938 C 161.300781 25.078125 161.089844 25.601562 160.664062 26.027344 L 159.609375 27.085938 C 159.183594 27.511719 158.660156 27.726562 158.042969 27.726562 L 154.144531 27.726562 C 153.527344 27.726562 153.003906 27.511719 152.578125 27.085938 L 151.527344 26.027344 C 151.101562 25.601562 150.886719 25.078125 150.886719 24.460938 L 150.886719 24.429688 C 150.886719 23.574219 151.3125 23.148438 152.164062 23.148438 L 152.515625 23.148438 C 152.921875 23.148438 153.234375 23.222656 153.457031 23.375 C 153.683594 23.523438 153.792969 23.726562 153.792969 23.980469 C 153.792969 24.238281 153.90625 24.441406 154.128906 24.589844 C 154.351562 24.738281 154.667969 24.8125 155.070312 24.8125 L 157.117188 24.8125 C 157.96875 24.8125 158.394531 24.386719 158.394531 23.535156 L 158.394531 22.574219 C 158.394531 21.722656 157.96875 21.292969 157.117188 21.292969 L 154.113281 21.292969 C 153.792969 21.292969 153.515625 21.246094 153.285156 21.148438 C 153.046875 21.054688 152.800781 20.898438 152.546875 20.6875 L 151.589844 19.855469 C 151.332031 19.640625 151.152344 19.410156 151.046875 19.167969 C 150.941406 18.921875 150.886719 18.628906 150.886719 18.285156 L 150.886719 15.148438 C 150.886719 14.828125 150.941406 14.546875 151.046875 14.300781 C 151.152344 14.054688 151.324219 13.816406 151.558594 13.582031 L 152.578125 12.558594 C 153.003906 12.132812 153.527344 11.917969 154.144531 11.917969 L 158.042969 11.917969 C 158.679688 11.917969 159.214844 12.132812 159.640625 12.558594 L 160.664062 13.582031 C 161.089844 14.007812 161.300781 14.53125 161.300781 15.148438 L 161.300781 15.214844 C 161.300781 16.066406 160.875 16.496094 160.023438 16.496094 Z M 159.671875 16.496094 " id="svg_4" fill="#fff200"/>
</g></g></svg>